# xmcd
#
# Track frame offsets:
#	225
#	13329
#	24093
#	36248
#	50943
#	65797
#	77305
#	90683
#	104795
#	119233
#
# Disc length: 1792 seconds
#
# Revision: 0
# Processed by: cddbd v1.5.2PL0 Copyright (c) Steve Scherf et al.
# Submitted via: EasyCDDAExtractor 11.5.0.1
#
DISCID=8e06fd0a
DTITLE=Peter O'Loughlin - Boat Ride
DYEAR=1900
DGENRE=
TTITLE0=Boat Ride
TTITLE1=Reach Out
TTITLE2=Million Dollar Love
TTITLE3=Here We Go Again
TTITLE4=We'll Be Satisfied
TTITLE5=Lady You're The Love
TTITLE6=When The Time Is Right
TTITLE7=Between Engagements
TTITLE8=Song For John
TTITLE9=Nuclear Dream
EXTD=
EXTT0=
EXTT1=
EXTT2=
EXTT3=
EXTT4=
EXTT5=
EXTT6=
EXTT7=
EXTT8=
EXTT9=
PLAYORDER=
